<svg width="139" height="182" viewBox="0 0 139 182" fill="none" xmlns="http://www.w3.org/2000/svg">
<g clip-path="url(#clip0_1_2)">
<rect width="139" height="182" fill="white"/>
<line x1="24.5" y1="110.002" x2="23.5" y2="399.002" stroke="black"/>
<line x1="113.5" y1="110.002" x2="112.5" y2="399.002" stroke="black"/>
<path d="M113.5 110C113.5 112.154 112.346 114.265 110.131 116.244C107.915 118.223 104.682 120.027 100.643 121.553C92.5694 124.603 81.382 126.5 69 126.5C56.618 126.5 45.4306 124.603 37.3569 121.553C33.3182 120.027 30.0845 118.223 27.8694 116.244C25.6539 114.265 24.5 112.154 24.5 110C24.5 107.846 25.6539 105.735 27.8694 103.756C30.0845 101.777 33.3182 99.9726 37.3569 98.4469C45.4306 95.3968 56.618 93.5 69 93.5C81.382 93.5 92.5694 95.3968 100.643 98.4469C104.682 99.9726 107.915 101.777 110.131 103.756C112.346 105.735 113.5 107.846 113.5 110Z" fill="white" stroke="black"/>
<line x1="58.5" y1="106.018" x2="58.5" y2="48.9825" stroke="black"/>
<line x1="75.5" y1="106.018" x2="75.5" y2="48.9825" stroke="black"/>
<path d="M101.5 42C101.5 43.127 100.697 44.3116 98.9697 45.4781C97.2602 46.6329 94.7536 47.6925 91.6114 48.5903C85.3337 50.3839 76.6321 51.5 67 51.5C57.3679 51.5 48.6663 50.3839 42.3886 48.5903C39.2464 47.6925 36.7398 46.6329 35.0304 45.4781C33.3034 44.3116 32.5 43.127 32.5 42C32.5 40.873 33.3034 39.6884 35.0304 38.5219C36.7398 37.3671 39.2464 36.3075 42.3886 35.4097C48.6663 33.6161 57.3679 32.5 67 32.5C76.6321 32.5 85.3337 33.6161 91.6114 35.4097C94.7536 36.3075 97.2602 37.3671 98.9697 38.5219C100.697 39.6884 101.5 40.873 101.5 42Z" fill="white"/>
<path d="M101.5 42C101.5 43.127 100.697 44.3116 98.9697 45.4781C97.2602 46.6329 94.7536 47.6925 91.6114 48.5903C85.3337 50.3839 76.6321 51.5 67 51.5C57.3679 51.5 48.6663 50.3839 42.3886 48.5903C39.2464 47.6925 36.7398 46.6329 35.0304 45.4781C33.3034 44.3116 32.5 43.127 32.5 42C32.5 40.873 33.3034 39.6884 35.0304 38.5219C36.7398 37.3671 39.2464 36.3075 42.3886 35.4097C48.6663 33.6161 57.3679 32.5 67 32.5C76.6321 32.5 85.3337 33.6161 91.6114 35.4097C94.7536 36.3075 97.2602 37.3671 98.9697 38.5219C100.697 39.6884 101.5 40.873 101.5 42Z" fill="white"/>
<path d="M101.5 42C101.5 43.127 100.697 44.3116 98.9697 45.4781C97.2602 46.6329 94.7536 47.6925 91.6114 48.5903C85.3337 50.3839 76.6321 51.5 67 51.5C57.3679 51.5 48.6663 50.3839 42.3886 48.5903C39.2464 47.6925 36.7398 46.6329 35.0304 45.4781C33.3034 44.3116 32.5 43.127 32.5 42C32.5 40.873 33.3034 39.6884 35.0304 38.5219C36.7398 37.3671 39.2464 36.3075 42.3886 35.4097C48.6663 33.6161 57.3679 32.5 67 32.5C76.6321 32.5 85.3337 33.6161 91.6114 35.4097C94.7536 36.3075 97.2602 37.3671 98.9697 38.5219C100.697 39.6884 101.5 40.873 101.5 42Z" fill="white"/>
<path d="M101.5 42C101.5 43.127 100.697 44.3116 98.9697 45.4781C97.2602 46.6329 94.7536 47.6925 91.6114 48.5903C85.3337 50.3839 76.6321 51.5 67 51.5C57.3679 51.5 48.6663 50.3839 42.3886 48.5903C39.2464 47.6925 36.7398 46.6329 35.0304 45.4781C33.3034 44.3116 32.5 43.127 32.5 42C32.5 40.873 33.3034 39.6884 35.0304 38.5219C36.7398 37.3671 39.2464 36.3075 42.3886 35.4097C48.6663 33.6161 57.3679 32.5 67 32.5C76.6321 32.5 85.3337 33.6161 91.6114 35.4097C94.7536 36.3075 97.2602 37.3671 98.9697 38.5219C100.697 39.6884 101.5 40.873 101.5 42Z" fill="white"/>
<path d="M101.5 42C101.5 43.127 100.697 44.3116 98.9697 45.4781C97.2602 46.6329 94.7536 47.6925 91.6114 48.5903C85.3337 50.3839 76.6321 51.5 67 51.5C57.3679 51.5 48.6663 50.3839 42.3886 48.5903C39.2464 47.6925 36.7398 46.6329 35.0304 45.4781C33.3034 44.3116 32.5 43.127 32.5 42C32.5 40.873 33.3034 39.6884 35.0304 38.5219C36.7398 37.3671 39.2464 36.3075 42.3886 35.4097C48.6663 33.6161 57.3679 32.5 67 32.5C76.6321 32.5 85.3337 33.6161 91.6114 35.4097C94.7536 36.3075 97.2602 37.3671 98.9697 38.5219C100.697 39.6884 101.5 40.873 101.5 42Z" fill="white"/>
<path d="M101.5 42C101.5 43.127 100.697 44.3116 98.9697 45.4781C97.2602 46.6329 94.7536 47.6925 91.6114 48.5903C85.3337 50.3839 76.6321 51.5 67 51.5C57.3679 51.5 48.6663 50.3839 42.3886 48.5903C39.2464 47.6925 36.7398 46.6329 35.0304 45.4781C33.3034 44.3116 32.5 43.127 32.5 42C32.5 40.873 33.3034 39.6884 35.0304 38.5219C36.7398 37.3671 39.2464 36.3075 42.3886 35.4097C48.6663 33.6161 57.3679 32.5 67 32.5C76.6321 32.5 85.3337 33.6161 91.6114 35.4097C94.7536 36.3075 97.2602 37.3671 98.9697 38.5219C100.697 39.6884 101.5 40.873 101.5 42Z" stroke="black"/>
<path d="M92.5 41.5C92.5 42.284 91.9455 43.1398 90.6751 44.0063C89.4211 44.8615 87.5738 45.6515 85.2462 46.3229C80.5976 47.6638 74.1465 48.5 67 48.5C59.8535 48.5 53.4024 47.6638 48.7538 46.3229C46.4262 45.6515 44.5789 44.8615 43.3249 44.0063C42.0545 43.1398 41.5 42.284 41.5 41.5C41.5 40.716 42.0545 39.8602 43.3249 38.9937C44.5789 38.1385 46.4262 37.3485 48.7538 36.6771C53.4024 35.3362 59.8535 34.5 67 34.5C74.1465 34.5 80.5976 35.3362 85.2462 36.6771C87.5738 37.3485 89.4211 38.1385 90.6751 38.9937C91.9455 39.8602 92.5 40.716 92.5 41.5Z" fill="white"/>
<path d="M92.5 41.5C92.5 42.284 91.9455 43.1398 90.6751 44.0063C89.4211 44.8615 87.5738 45.6515 85.2462 46.3229C80.5976 47.6638 74.1465 48.5 67 48.5C59.8535 48.5 53.4024 47.6638 48.7538 46.3229C46.4262 45.6515 44.5789 44.8615 43.3249 44.0063C42.0545 43.1398 41.5 42.284 41.5 41.5C41.5 40.716 42.0545 39.8602 43.3249 38.9937C44.5789 38.1385 46.4262 37.3485 48.7538 36.6771C53.4024 35.3362 59.8535 34.5 67 34.5C74.1465 34.5 80.5976 35.3362 85.2462 36.6771C87.5738 37.3485 89.4211 38.1385 90.6751 38.9937C91.9455 39.8602 92.5 40.716 92.5 41.5Z" fill="white"/>
<path d="M92.5 41.5C92.5 42.284 91.9455 43.1398 90.6751 44.0063C89.4211 44.8615 87.5738 45.6515 85.2462 46.3229C80.5976 47.6638 74.1465 48.5 67 48.5C59.8535 48.5 53.4024 47.6638 48.7538 46.3229C46.4262 45.6515 44.5789 44.8615 43.3249 44.0063C42.0545 43.1398 41.5 42.284 41.5 41.5C41.5 40.716 42.0545 39.8602 43.3249 38.9937C44.5789 38.1385 46.4262 37.3485 48.7538 36.6771C53.4024 35.3362 59.8535 34.5 67 34.5C74.1465 34.5 80.5976 35.3362 85.2462 36.6771C87.5738 37.3485 89.4211 38.1385 90.6751 38.9937C91.9455 39.8602 92.5 40.716 92.5 41.5Z" fill="white"/>
<path d="M92.5 41.5C92.5 42.284 91.9455 43.1398 90.6751 44.0063C89.4211 44.8615 87.5738 45.6515 85.2462 46.3229C80.5976 47.6638 74.1465 48.5 67 48.5C59.8535 48.5 53.4024 47.6638 48.7538 46.3229C46.4262 45.6515 44.5789 44.8615 43.3249 44.0063C42.0545 43.1398 41.5 42.284 41.5 41.5C41.5 40.716 42.0545 39.8602 43.3249 38.9937C44.5789 38.1385 46.4262 37.3485 48.7538 36.6771C53.4024 35.3362 59.8535 34.5 67 34.5C74.1465 34.5 80.5976 35.3362 85.2462 36.6771C87.5738 37.3485 89.4211 38.1385 90.6751 38.9937C91.9455 39.8602 92.5 40.716 92.5 41.5Z" fill="white"/>
<path d="M92.5 41.5C92.5 42.284 91.9455 43.1398 90.6751 44.0063C89.4211 44.8615 87.5738 45.6515 85.2462 46.3229C80.5976 47.6638 74.1465 48.5 67 48.5C59.8535 48.5 53.4024 47.6638 48.7538 46.3229C46.4262 45.6515 44.5789 44.8615 43.3249 44.0063C42.0545 43.1398 41.5 42.284 41.5 41.5C41.5 40.716 42.0545 39.8602 43.3249 38.9937C44.5789 38.1385 46.4262 37.3485 48.7538 36.6771C53.4024 35.3362 59.8535 34.5 67 34.5C74.1465 34.5 80.5976 35.3362 85.2462 36.6771C87.5738 37.3485 89.4211 38.1385 90.6751 38.9937C91.9455 39.8602 92.5 40.716 92.5 41.5Z" fill="white"/>
<path d="M92.5 41.5C92.5 42.284 91.9455 43.1398 90.6751 44.0063C89.4211 44.8615 87.5738 45.6515 85.2462 46.3229C80.5976 47.6638 74.1465 48.5 67 48.5C59.8535 48.5 53.4024 47.6638 48.7538 46.3229C46.4262 45.6515 44.5789 44.8615 43.3249 44.0063C42.0545 43.1398 41.5 42.284 41.5 41.5C41.5 40.716 42.0545 39.8602 43.3249 38.9937C44.5789 38.1385 46.4262 37.3485 48.7538 36.6771C53.4024 35.3362 59.8535 34.5 67 34.5C74.1465 34.5 80.5976 35.3362 85.2462 36.6771C87.5738 37.3485 89.4211 38.1385 90.6751 38.9937C91.9455 39.8602 92.5 40.716 92.5 41.5Z" stroke="black"/>
<path d="M58.5 106L62.5 109H72.5L75.5 106" stroke="black"/>
<path d="M62.5868 93.9706V94.3047" stroke="#FEFDFD" stroke-width="3" stroke-linecap="round"/>
<path d="M64.2574 93.1353C63.8857 93.1818 64.0903 95.6129 64.0903 95.9752" stroke="#FEFDFD" stroke-width="3" stroke-linecap="round"/>
<path d="M65.7608 94.1376C66.0042 94.1224 66.3317 93.9983 66.4291 93.8035" stroke="#FEFDFD" stroke-width="3" stroke-linecap="round"/>
<path d="M66.4291 93.8035C68.0674 93.8035 69.7412 93.6365 71.3479 93.6365C72.0493 93.6365 74.1467 93.8035 73.4454 93.8035" stroke="#FEFDFD" stroke-width="3" stroke-linecap="round"/>
<path d="M61.4174 93.1353H62.2527" stroke="#FEFDFD" stroke-width="3" stroke-linecap="round"/>
<path d="M60.4151 94.1376C60.4151 93.8023 60.5493 93.1189 60.248 92.9682" stroke="#FEFDFD" stroke-width="3" stroke-linecap="round"/>
</g>
<defs>
<clipPath id="clip0_1_2">
<rect width="139" height="182" fill="white"/>
</clipPath>
</defs>
</svg>
