<svg width="139" height="182" viewBox="0 0 139 182" fill="none" xmlns="http://www.w3.org/2000/svg">
<g clip-path="url(#clip0_2_29)">
<rect width="139" height="182" fill="white"/>
<rect x="25.5" y="111.5" width="88" height="287" fill="#69C1F2" stroke="black"/>
<path d="M113.5 110C113.5 112.154 112.346 114.265 110.131 116.244C107.915 118.223 104.682 120.027 100.643 121.553C92.5694 124.603 81.382 126.5 69 126.5C56.618 126.5 45.4306 124.603 37.3569 121.553C33.3182 120.027 30.0845 118.223 27.8694 116.244C25.6539 114.265 24.5 112.154 24.5 110C24.5 107.846 25.6539 105.735 27.8694 103.756C30.0845 101.777 33.3182 99.9726 37.3569 98.4469C45.4306 95.3968 56.618 93.5 69 93.5C81.382 93.5 92.5694 95.3968 100.643 98.4469C104.682 99.9726 107.915 101.777 110.131 103.756C112.346 105.735 113.5 107.846 113.5 110Z" fill="#69C1F2" stroke="black"/>
<path d="M101.5 95C101.5 96.127 100.697 97.3116 98.9697 98.4781C97.2602 99.6329 94.7536 100.693 91.6114 101.59C85.3337 103.384 76.6321 104.5 67 104.5C57.3679 104.5 48.6663 103.384 42.3886 101.59C39.2464 100.693 36.7398 99.6329 35.0304 98.4781C33.3034 97.3116 32.5 96.127 32.5 95C32.5 93.873 33.3034 92.6884 35.0304 91.5219C36.7398 90.3671 39.2464 89.3075 42.3886 88.4097C48.6663 86.6161 57.3679 85.5 67 85.5C76.6321 85.5 85.3337 86.6161 91.6114 88.4097C94.7536 89.3075 97.2602 90.3671 98.9697 91.5219C100.697 92.6884 101.5 93.873 101.5 95Z" fill="white"/>
<path d="M101.5 95C101.5 96.127 100.697 97.3116 98.9697 98.4781C97.2602 99.6329 94.7536 100.693 91.6114 101.59C85.3337 103.384 76.6321 104.5 67 104.5C57.3679 104.5 48.6663 103.384 42.3886 101.59C39.2464 100.693 36.7398 99.6329 35.0304 98.4781C33.3034 97.3116 32.5 96.127 32.5 95C32.5 93.873 33.3034 92.6884 35.0304 91.5219C36.7398 90.3671 39.2464 89.3075 42.3886 88.4097C48.6663 86.6161 57.3679 85.5 67 85.5C76.6321 85.5 85.3337 86.6161 91.6114 88.4097C94.7536 89.3075 97.2602 90.3671 98.9697 91.5219C100.697 92.6884 101.5 93.873 101.5 95Z" fill="white"/>
<path d="M101.5 95C101.5 96.127 100.697 97.3116 98.9697 98.4781C97.2602 99.6329 94.7536 100.693 91.6114 101.59C85.3337 103.384 76.6321 104.5 67 104.5C57.3679 104.5 48.6663 103.384 42.3886 101.59C39.2464 100.693 36.7398 99.6329 35.0304 98.4781C33.3034 97.3116 32.5 96.127 32.5 95C32.5 93.873 33.3034 92.6884 35.0304 91.5219C36.7398 90.3671 39.2464 89.3075 42.3886 88.4097C48.6663 86.6161 57.3679 85.5 67 85.5C76.6321 85.5 85.3337 86.6161 91.6114 88.4097C94.7536 89.3075 97.2602 90.3671 98.9697 91.5219C100.697 92.6884 101.5 93.873 101.5 95Z" fill="white"/>
<path d="M101.5 95C101.5 96.127 100.697 97.3116 98.9697 98.4781C97.2602 99.6329 94.7536 100.693 91.6114 101.59C85.3337 103.384 76.6321 104.5 67 104.5C57.3679 104.5 48.6663 103.384 42.3886 101.59C39.2464 100.693 36.7398 99.6329 35.0304 98.4781C33.3034 97.3116 32.5 96.127 32.5 95C32.5 93.873 33.3034 92.6884 35.0304 91.5219C36.7398 90.3671 39.2464 89.3075 42.3886 88.4097C48.6663 86.6161 57.3679 85.5 67 85.5C76.6321 85.5 85.3337 86.6161 91.6114 88.4097C94.7536 89.3075 97.2602 90.3671 98.9697 91.5219C100.697 92.6884 101.5 93.873 101.5 95Z" fill="white"/>
<path d="M101.5 95C101.5 96.127 100.697 97.3116 98.9697 98.4781C97.2602 99.6329 94.7536 100.693 91.6114 101.59C85.3337 103.384 76.6321 104.5 67 104.5C57.3679 104.5 48.6663 103.384 42.3886 101.59C39.2464 100.693 36.7398 99.6329 35.0304 98.4781C33.3034 97.3116 32.5 96.127 32.5 95C32.5 93.873 33.3034 92.6884 35.0304 91.5219C36.7398 90.3671 39.2464 89.3075 42.3886 88.4097C48.6663 86.6161 57.3679 85.5 67 85.5C76.6321 85.5 85.3337 86.6161 91.6114 88.4097C94.7536 89.3075 97.2602 90.3671 98.9697 91.5219C100.697 92.6884 101.5 93.873 101.5 95Z" fill="#69C1F2"/>
<path d="M101.5 95C101.5 96.127 100.697 97.3116 98.9697 98.4781C97.2602 99.6329 94.7536 100.693 91.6114 101.59C85.3337 103.384 76.6321 104.5 67 104.5C57.3679 104.5 48.6663 103.384 42.3886 101.59C39.2464 100.693 36.7398 99.6329 35.0304 98.4781C33.3034 97.3116 32.5 96.127 32.5 95C32.5 93.873 33.3034 92.6884 35.0304 91.5219C36.7398 90.3671 39.2464 89.3075 42.3886 88.4097C48.6663 86.6161 57.3679 85.5 67 85.5C76.6321 85.5 85.3337 86.6161 91.6114 88.4097C94.7536 89.3075 97.2602 90.3671 98.9697 91.5219C100.697 92.6884 101.5 93.873 101.5 95Z" stroke="black"/>
<path d="M92.5 94.5C92.5 95.284 91.9455 96.1398 90.6751 97.0063C89.4211 97.8615 87.5738 98.6515 85.2462 99.3229C80.5976 100.664 74.1465 101.5 67 101.5C59.8535 101.5 53.4024 100.664 48.7538 99.3229C46.4262 98.6515 44.5789 97.8615 43.3249 97.0063C42.0545 96.1398 41.5 95.284 41.5 94.5C41.5 93.716 42.0545 92.8602 43.3249 91.9937C44.5789 91.1385 46.4262 90.3485 48.7538 89.6771C53.4024 88.3362 59.8535 87.5 67 87.5C74.1465 87.5 80.5976 88.3362 85.2462 89.6771C87.5738 90.3485 89.4211 91.1385 90.6751 91.9937C91.9455 92.8602 92.5 93.716 92.5 94.5Z" fill="white"/>
<path d="M92.5 94.5C92.5 95.284 91.9455 96.1398 90.6751 97.0063C89.4211 97.8615 87.5738 98.6515 85.2462 99.3229C80.5976 100.664 74.1465 101.5 67 101.5C59.8535 101.5 53.4024 100.664 48.7538 99.3229C46.4262 98.6515 44.5789 97.8615 43.3249 97.0063C42.0545 96.1398 41.5 95.284 41.5 94.5C41.5 93.716 42.0545 92.8602 43.3249 91.9937C44.5789 91.1385 46.4262 90.3485 48.7538 89.6771C53.4024 88.3362 59.8535 87.5 67 87.5C74.1465 87.5 80.5976 88.3362 85.2462 89.6771C87.5738 90.3485 89.4211 91.1385 90.6751 91.9937C91.9455 92.8602 92.5 93.716 92.5 94.5Z" fill="white"/>
<path d="M92.5 94.5C92.5 95.284 91.9455 96.1398 90.6751 97.0063C89.4211 97.8615 87.5738 98.6515 85.2462 99.3229C80.5976 100.664 74.1465 101.5 67 101.5C59.8535 101.5 53.4024 100.664 48.7538 99.3229C46.4262 98.6515 44.5789 97.8615 43.3249 97.0063C42.0545 96.1398 41.5 95.284 41.5 94.5C41.5 93.716 42.0545 92.8602 43.3249 91.9937C44.5789 91.1385 46.4262 90.3485 48.7538 89.6771C53.4024 88.3362 59.8535 87.5 67 87.5C74.1465 87.5 80.5976 88.3362 85.2462 89.6771C87.5738 90.3485 89.4211 91.1385 90.6751 91.9937C91.9455 92.8602 92.5 93.716 92.5 94.5Z" fill="white"/>
<path d="M92.5 94.5C92.5 95.284 91.9455 96.1398 90.6751 97.0063C89.4211 97.8615 87.5738 98.6515 85.2462 99.3229C80.5976 100.664 74.1465 101.5 67 101.5C59.8535 101.5 53.4024 100.664 48.7538 99.3229C46.4262 98.6515 44.5789 97.8615 43.3249 97.0063C42.0545 96.1398 41.5 95.284 41.5 94.5C41.5 93.716 42.0545 92.8602 43.3249 91.9937C44.5789 91.1385 46.4262 90.3485 48.7538 89.6771C53.4024 88.3362 59.8535 87.5 67 87.5C74.1465 87.5 80.5976 88.3362 85.2462 89.6771C87.5738 90.3485 89.4211 91.1385 90.6751 91.9937C91.9455 92.8602 92.5 93.716 92.5 94.5Z" fill="white"/>
<path d="M92.5 94.5C92.5 95.284 91.9455 96.1398 90.6751 97.0063C89.4211 97.8615 87.5738 98.6515 85.2462 99.3229C80.5976 100.664 74.1465 101.5 67 101.5C59.8535 101.5 53.4024 100.664 48.7538 99.3229C46.4262 98.6515 44.5789 97.8615 43.3249 97.0063C42.0545 96.1398 41.5 95.284 41.5 94.5C41.5 93.716 42.0545 92.8602 43.3249 91.9937C44.5789 91.1385 46.4262 90.3485 48.7538 89.6771C53.4024 88.3362 59.8535 87.5 67 87.5C74.1465 87.5 80.5976 88.3362 85.2462 89.6771C87.5738 90.3485 89.4211 91.1385 90.6751 91.9937C91.9455 92.8602 92.5 93.716 92.5 94.5Z" fill="#69C1F2"/>
<path d="M92.5 94.5C92.5 95.284 91.9455 96.1398 90.6751 97.0063C89.4211 97.8615 87.5738 98.6515 85.2462 99.3229C80.5976 100.664 74.1465 101.5 67 101.5C59.8535 101.5 53.4024 100.664 48.7538 99.3229C46.4262 98.6515 44.5789 97.8615 43.3249 97.0063C42.0545 96.1398 41.5 95.284 41.5 94.5C41.5 93.716 42.0545 92.8602 43.3249 91.9937C44.5789 91.1385 46.4262 90.3485 48.7538 89.6771C53.4024 88.3362 59.8535 87.5 67 87.5C74.1465 87.5 80.5976 88.3362 85.2462 89.6771C87.5738 90.3485 89.4211 91.1385 90.6751 91.9937C91.9455 92.8602 92.5 93.716 92.5 94.5Z" stroke="black"/>
<path d="M58.5 106L62.5 109H72.5L75.5 106" stroke="black"/>
</g>
<defs>
<clipPath id="clip0_2_29">
<rect width="139" height="182" fill="white"/>
</clipPath>
</defs>
</svg>
